<?xml version="1.0" encoding="iso-8859-1"?>
<!-- Generator: Adobe Illustrator 19.0.0, SVG Export Plug-In . SVG Version: 6.00 Build 0)  -->
<svg version="1.1" id="Capa_1" xmlns="http://www.w3.org/2000/svg" xmlns:xlink="http://www.w3.org/1999/xlink" x="0px" y="0px"
	 viewBox="0 0 512 512" style="enable-background:new 0 0 512 512;" xml:space="preserve">
<g>
	<g>
		<path d="M270.294,241.705c-3.771-3.759-8.972-5.915-14.294-5.915s-10.523,2.156-14.295,5.915
			c-3.759,3.759-5.915,8.973-5.915,14.295c0,5.322,2.156,10.523,5.915,14.282c3.773,3.773,8.973,5.928,14.295,5.928
			c5.322,0,10.523-2.157,14.294-5.928c3.759-3.759,5.916-8.959,5.916-14.282C276.21,250.678,274.053,245.464,270.294,241.705z"/>
	</g>
</g>
<g>
	<g>
		<path d="M256.001,161.685c-52.005,0-94.315,42.308-94.315,94.314c0,52.005,42.31,94.315,94.314,94.315h0.004l0.003-20.21v20.21
			c52.003,0,94.31-42.31,94.31-94.315C350.317,203.993,308.008,161.685,256.001,161.685z M256.007,309.893h-0.005
			c-29.717,0-53.894-24.177-53.894-53.894c0-29.717,24.177-53.893,53.894-53.893c29.717,0,53.894,24.176,53.894,53.893
			C309.896,285.716,285.721,309.893,256.007,309.893z"/>
	</g>
</g>
<g>
	<g>
		<path d="M255.999,390.737c-74.294,0-134.736-60.443-134.736-134.737c0-11.161-9.049-20.21-20.21-20.21
			c-11.162,0-20.21,9.049-20.21,20.21c0,96.583,78.575,175.158,175.157,175.158c11.162,0,20.21-9.049,20.21-20.21
			C276.209,399.786,267.16,390.737,255.999,390.737z"/>
	</g>
</g>
<g>
	<g>
		<path d="M379.856,132.145c-33.083-33.083-77.069-51.302-123.858-51.302c-11.162,0-20.21,9.049-20.21,20.21
			s9.049,20.21,20.21,20.21c35.991,0,69.827,14.014,95.276,39.463c25.448,25.449,39.461,59.284,39.46,95.275
			c0,11.162,9.047,20.21,20.21,20.21c11.16,0,20.21-9.049,20.21-20.21C431.157,209.214,412.938,165.228,379.856,132.145z"/>
	</g>
</g>
<g>
	<g>
		<path d="M255.999,0.001C114.84,0.003,0,114.842,0,255.999c0,141.159,114.841,256,256.001,256
			C397.16,511.999,512,397.159,512,256.001C511.997,114.842,397.156,0.001,255.999,0.001z M256.001,471.578
			c-118.872,0-215.581-96.708-215.581-215.579c0-118.868,96.708-215.575,215.578-215.576c118.87,0,215.578,96.708,215.581,215.579
			C471.579,374.871,374.872,471.578,256.001,471.578z"/>
	</g>
</g>
<g>
</g>
<g>
</g>
<g>
</g>
<g>
</g>
<g>
</g>
<g>
</g>
<g>
</g>
<g>
</g>
<g>
</g>
<g>
</g>
<g>
</g>
<g>
</g>
<g>
</g>
<g>
</g>
<g>
</g>
</svg>
